<svg xmlns="http://www.w3.org/2000/svg" viewBox="0 0 1200 900" role="img" aria-label="Iced Latte"><defs><linearGradient id="g" x1="0" y1="0" x2="1" y2="1"><stop stop-color="#2b2622"/><stop offset="1" stop-color="#1E1A17"/></linearGradient><filter id="s"><feDropShadow dx="0" dy="24" stdDeviation="22" flood-color="#000" flood-opacity=".35"/></filter></defs><rect width="1200" height="900" fill="url(#g)"/><circle cx="210" cy="150" r="150" fill="#b88746" opacity=".13"/><circle cx="1040" cy="760" r="230" fill="#b88746" opacity=".10"/><g filter="url(#s)"><path d="M350 360h360v115a180 180 0 0 1-360 0V360Z" fill="#b88746" opacity=".92"/><path d="M710 395h70a80 80 0 0 1 0 160h-70" fill="none" stroke="#b88746" stroke-width="42" stroke-linecap="round"/><ellipse cx="530" cy="360" rx="180" ry="34" fill="#F5EFE6" opacity=".16"/></g><path d="M455 210c-52 66 52 78 0 142M555 190c-60 72 62 91 0 160M655 210c-52 66 52 78 0 142" fill="none" stroke="#F5EFE6" stroke-width="24" stroke-linecap="round" opacity=".74"/><text x="80" y="800" fill="#F5EFE6" opacity=".86" font-family="Arial, sans-serif" font-size="70" font-weight="700" letter-spacing="8">ICED</text></svg>